Coordinates
version=1
nRows=54
nColumns=12
inDegrees=yes

Units are S.I. units (second, meters, Newtons, ...)
Angles are in degrees

endheader
time	SC_y	SC_z	SC_x	AC_y	AC_z	AC_x	GH_y	GH_z	GH_yy	EL_x	PS_y
       0.0              -16.82          35.61          48.28          33.95         -12.03          2.001          5.014           12.0          112.4          34.29          98.62
   0.01672              -16.82          35.61          48.27          33.95         -12.03          2.003          5.039           12.0          112.4           34.3          98.62
   0.03344              -16.83           35.6          48.27          33.95         -12.04          2.005          5.065           12.0          112.4          34.31          98.62
   0.05015              -16.83           35.6          48.26          33.96         -12.04          2.007          5.093           12.0          112.4          34.32          98.63
   0.06687              -16.83          35.59          48.25          33.96         -12.04          2.009          5.122          12.01          112.4          34.33          98.63
   0.08359              -16.84          35.58          48.25          33.96         -12.04          2.012          5.154          12.01          112.4          34.35          98.63
    0.1003              -16.84          35.57          48.24          33.97         -12.04          2.014          5.188          12.01          112.4          34.36          98.64
     0.117              -16.85          35.56          48.23          33.97         -12.04          2.017          5.224          12.01          112.4          34.37          98.64
    0.1337              -16.85          35.56          48.22          33.97         -12.04           2.02          5.263          12.01          112.4          34.39          98.65
    0.1505              -16.86          35.55          48.21          33.98         -12.04          2.023          5.304          12.02          112.4           34.4          98.65
    0.1672              -16.86          35.53           48.2          33.98         -12.04          2.027          5.349          12.02          112.4          34.42          98.66
    0.1839              -16.87          35.52          48.19          33.99         -12.05           2.03          5.397          12.02          112.4          34.44          98.67
    0.2006              -16.87          35.51          48.18          33.99         -12.05          2.034          5.448          12.02          112.4          34.46          98.67
    0.2173              -16.88           35.5          48.17           34.0         -12.05          2.039          5.504          12.03          112.4          34.48          98.68
     0.234              -16.89          35.48          48.16           34.0         -12.05          2.044          5.565          12.03          112.4          34.51          98.69
    0.2508               -16.9          35.47          48.14          34.01         -12.05          2.049           5.63          12.04          112.4          34.53           98.7
    0.2675              -16.91          35.45          48.12          34.01         -12.06          2.054          5.701          12.04          112.3          34.56          98.71
    0.2842              -16.92          35.43          48.11          34.02         -12.06           2.06          5.779          12.04          112.3          34.59          98.72
    0.3009              -16.93          35.41          48.09          34.03         -12.06          2.067          5.864          12.05          112.3          34.62          98.73
    0.3176              -16.94          35.39          48.07          34.04         -12.06          2.074          5.957          12.05          112.3          34.66          98.74
    0.3344              -16.95          35.37          48.05          34.05         -12.07          2.082          6.058          12.06          112.3           34.7          98.75
    0.3511              -16.96          35.34          48.02          34.06         -12.07          2.091          6.171          12.07          112.3          34.74          98.77
    0.3678              -16.98          35.31          47.99          34.07         -12.07            2.1          6.294          12.07          112.2          34.79          98.78
    0.3845               -17.0          35.28          47.96          34.09         -12.08          2.111          6.432          12.08          112.2          34.84           98.8
    0.4012              -17.02          35.24          47.93           34.1         -12.08          2.123          6.584          12.09          112.2           34.9          98.82
    0.4179              -17.04           35.2          47.89          34.12         -12.09          2.136          6.754           12.1          112.2          34.97          98.84
    0.4347              -17.06          35.15          47.85          34.14          -12.1          2.151          6.945          12.11          112.1          35.04          98.87
    0.4514              -17.09           35.1           47.8          34.16          -12.1          2.168           7.16          12.13          112.1          35.13          98.89
    0.4681              -17.12          35.05          47.75          34.18         -12.11          2.187          7.402          12.14          112.1          35.22          98.93
    0.4848              -17.15          34.98          47.69          34.21         -12.12          2.208          7.677          12.16          112.0          35.33          98.96
    0.5015              -17.19          34.91          47.62          34.24         -12.13          2.232          7.991          12.17          112.0          35.45           99.0
    0.5182              -17.24          34.82          47.54          34.27         -12.14           2.26          8.352           12.2          111.9          35.59          99.05
     0.535              -17.29          34.72          47.45          34.31         -12.15          2.293          8.768          12.22          111.9          35.76           99.1
    0.5517              -17.35          34.61          47.34          34.36         -12.17           2.33          9.251          12.25          111.8          35.94          99.17
    0.5684              -17.42          34.47          47.22          34.41         -12.19          2.375          9.817          12.28          111.7          36.16          99.24
    0.5851               -17.5          34.31          47.07          34.48         -12.21          2.426          10.48          12.32          111.6          36.42          99.32
    0.6018               -17.6          34.12           46.9          34.56         -12.23          2.488          11.28          12.37          111.5          36.73          99.43
    0.6186              -17.72           33.9          46.69          34.65         -12.26          2.562          12.23          12.42          111.3           37.1          99.55
    0.6353              -17.87          33.62          46.43          34.76          -12.3          2.652          13.38          12.49          111.1          37.55           99.7
     0.652              -18.04          33.29          46.12           34.9         -12.34          2.761          14.78          12.57          110.9           38.1          99.88
    0.6687              -18.26          32.88          45.74          35.06          -12.4          2.896          16.51          12.68          110.6          38.78          100.1
    0.6854              -18.53          32.36          45.27          35.27         -12.47          3.064          18.67           12.8          110.3          39.62          100.4
    0.7021              -18.87          31.71          44.67          35.54         -12.56          3.276           21.4          12.97          109.9          40.68          100.7
    0.7189               -19.3          30.89           43.9          35.87         -12.67          3.545          24.86          13.17          109.3          42.03          101.2
    0.7356              -19.85          29.83          42.93           36.3         -12.81           3.89          29.29          13.43          108.6          43.76          101.8
    0.7523              -20.57          28.48          41.68          36.85         -12.99          4.332          34.97          13.77          107.7          45.97          102.5
     0.769              -21.47          26.75          40.08          37.56         -13.22          4.898          42.23          14.19          106.6          48.81          103.4
    0.7857              -22.61          24.58          38.06          38.44         -13.51          5.608          51.36          14.73          105.1          52.37          104.6
    0.8024              -24.01          21.93          35.61          39.52         -13.86          6.474          62.49          15.39          103.4           56.7          106.1
    0.8192              -25.62          18.85          32.77          40.77         -14.27          7.478          75.39          16.15          101.3          61.73          107.7
    0.8359              -27.36          15.53          29.69          42.13         -14.72          8.565          89.35          16.97          99.12          67.18          109.5
    0.8526              -29.11           12.2          26.62          43.48         -15.16          9.652          103.3          17.79          96.91          72.62          111.3
    0.8693              -30.72          9.131          23.78          44.73         -15.57          10.66          116.2          18.55          94.88          77.65          113.0
     0.886              -32.11          6.482          21.33          45.81         -15.93          11.52          127.3          19.21          93.12          81.99          114.5
